<?xml version="1.0" standalone="no"?>
<!DOCTYPE svg PUBLIC "-//W3C//DTD SVG 20010904//EN"
 "http://www.w3.org/TR/2001/REC-SVG-20010904/DTD/svg10.dtd">
<svg version="1.0" xmlns="http://www.w3.org/2000/svg"
 width="844.000000pt" height="1280.000000pt" viewBox="0 0 844.000000 1280.000000"
 preserveAspectRatio="xMidYMid meet">

<g transform="translate(0.000000,1280.000000) scale(0.100000,-0.100000)"
fill="#000000" stroke="none">
<path d="M4415 11180 c-11 -4 -33 -22 -49 -39 -26 -27 -28 -35 -23 -78 14
-119 181 -423 336 -613 46 -57 189 -202 251 -256 52 -44 308 -227 429 -305 63
-41 99 -70 91 -73 -8 -3 -39 -9 -67 -15 -78 -16 -173 -63 -216 -107 -73 -74
-126 -201 -110 -262 5 -22 8 -22 147 -16 99 5 159 3 197 -5 57 -14 194 -63
244 -88 55 -28 289 -185 347 -232 31 -25 83 -60 115 -77 l57 -31 26 -89 c57
-195 156 -334 315 -444 28 -19 52 -38 53 -42 2 -5 8 -8 13 -8 14 0 301 -195
326 -222 20 -21 21 -29 13 -58 -5 -18 -13 -36 -18 -39 -4 -3 -18 -19 -31 -36
-12 -16 -69 -78 -126 -136 -171 -176 -213 -259 -202 -408 6 -86 30 -157 75
-223 l31 -46 -32 -13 c-238 -95 -444 -232 -435 -290 2 -13 14 -29 28 -37 25
-13 48 -13 320 4 88 6 103 4 120 -11 35 -32 24 -72 -39 -141 -41 -45 -60 -93
-61 -154 0 -36 11 -68 54 -150 60 -116 96 -244 96 -339 0 -89 -47 -206 -100
-248 -67 -55 -277 -106 -480 -118 -190 -10 -487 -45 -615 -71 -267 -56 -438
-146 -617 -325 -84 -84 -220 -264 -285 -374 -177 -304 -284 -744 -270 -1110 3
-82 11 -174 17 -203 20 -90 3 -86 -112 30 -210 211 -285 310 -384 513 -70 143
-89 224 -220 920 -37 201 -109 502 -145 608 -37 112 -115 270 -199 401 -34 55
-79 136 -100 182 -37 79 -90 237 -90 266 0 8 13 24 30 36 50 37 120 204 120
286 0 38 -34 106 -63 128 -43 31 -95 27 -132 -9 -39 -39 -97 -165 -103 -224
-2 -27 -9 -52 -14 -55 -42 -26 -498 398 -630 586 -118 166 -248 443 -263 556
-11 78 36 276 91 384 35 69 89 126 149 155 103 51 306 44 409 -13 78 -43 78
-46 -3 -153 -86 -113 -106 -167 -99 -276 4 -58 13 -88 41 -147 64 -128 145
-179 249 -156 145 30 238 168 238 350 0 101 -21 184 -76 297 l-45 94 108 132
c168 204 382 473 465 582 131 175 277 431 342 602 65 175 110 338 114 421 4
87 -4 112 -39 112 -28 0 -42 -29 -112 -225 -89 -249 -118 -318 -191 -461 -78
-149 -129 -229 -248 -388 -164 -218 -505 -636 -518 -636 -13 0 -67 120 -84
188 -31 119 -13 275 46 403 29 62 109 172 229 315 46 55 86 101 89 104 3 3 73
84 156 180 82 96 159 186 171 200 125 143 261 375 311 530 31 97 52 233 52
343 0 53 3 97 8 97 14 -1 133 -127 192 -205 131 -174 259 -484 275 -665 8 -96
-9 -336 -34 -466 -22 -115 -83 -247 -211 -460 -129 -213 -219 -337 -351 -482
-37 -40 -83 -105 -103 -143 -32 -63 -36 -80 -36 -144 0 -76 4 -87 87 -235 76
-137 110 -312 98 -510 -13 -229 -112 -412 -281 -523 -27 -18 -47 -36 -46 -42
4 -15 92 -6 139 15 220 97 333 309 333 625 0 212 -42 371 -145 552 -30 52 -45
90 -45 114 0 52 41 124 121 214 174 194 356 468 492 741 94 189 121 329 122
634 l0 215 -49 140 c-113 325 -200 467 -426 698 -122 126 -223 202 -257 195
-28 -5 -34 -56 -27 -243 9 -263 -16 -386 -117 -585 -57 -111 -58 -112 -128
-210 -43 -59 -256 -318 -281 -340 -3 -3 -46 -52 -95 -110 -50 -58 -103 -119
-119 -137 -67 -76 -200 -252 -233 -311 -20 -35 -47 -98 -61 -140 -22 -68 -25
-95 -26 -227 -1 -145 0 -153 31 -239 18 -49 31 -91 30 -93 -2 -2 -30 6 -62 17
-32 11 -98 25 -147 31 -143 19 -301 -20 -394 -97 -101 -82 -169 -211 -221
-418 -45 -181 -24 -292 101 -552 108 -223 222 -379 422 -576 198 -195 342
-310 439 -352 22 -9 46 -20 54 -24 7 -4 22 -41 32 -82 11 -41 28 -99 40 -130
27 -74 113 -243 155 -308 84 -125 172 -307 200 -410 9 -31 24 -88 35 -127 21
-80 99 -459 160 -780 22 -121 56 -280 75 -354 46 -182 40 -185 -59 -28 -35 56
-85 143 -112 192 -51 94 -96 167 -201 325 l-63 95 -10 230 c-12 237 -23 319
-67 465 -73 247 -139 365 -324 585 -65 78 -242 245 -299 283 -76 50 -119 55
-156 17 -32 -31 -32 -62 -1 -168 27 -94 53 -244 43 -253 -3 -4 -37 20 -74 53
-164 143 -432 278 -663 334 -125 31 -381 33 -505 5 -167 -37 -256 -69 -291
-102 -60 -56 -39 -121 55 -169 64 -32 162 -113 306 -253 234 -228 354 -328
552 -461 121 -81 191 -115 290 -140 143 -37 234 -27 456 50 l98 34 52 -55
c123 -131 257 -293 257 -310 0 -6 -44 13 -97 40 -56 28 -141 62 -198 77 -92
24 -116 27 -295 27 l-195 1 -140 -48 c-169 -58 -251 -100 -271 -138 -33 -64
-16 -87 137 -188 216 -143 421 -234 566 -251 43 -5 245 -6 449 -3 l372 6 24
-39 c24 -38 40 -66 116 -204 96 -176 231 -357 362 -490 156 -156 685 -580 725
-580 34 0 65 25 75 59 14 49 14 48 -19 148 -32 94 -46 182 -55 333 -6 89 -3
129 24 355 15 121 63 305 122 465 59 162 226 415 366 557 215 219 435 297 942
337 310 25 320 26 430 46 201 36 316 90 383 180 38 50 81 151 98 230 22 103
-16 267 -105 454 -29 62 -51 118 -48 126 2 8 22 49 43 91 48 97 73 190 65 248
-5 34 -2 49 14 71 45 64 60 147 40 221 -8 27 -19 41 -45 53 -62 30 -110 111
-121 208 -12 105 21 164 187 333 146 148 199 229 199 305 0 88 -56 151 -238
269 -193 125 -312 214 -362 268 -106 116 -152 262 -169 542 -6 95 -13 176 -16
180 -2 4 -11 52 -20 107 -84 528 -196 846 -387 1099 -104 138 -243 280 -328
335 -79 50 -242 130 -327 159 -122 41 -326 71 -548 81 -245 11 -225 11 -250 0z
m540 -170 c66 -11 157 -32 201 -45 172 -52 391 -187 498 -306 100 -111 296
-443 284 -480 -2 -6 -21 11 -43 37 -145 181 -446 429 -630 521 -148 74 -236
98 -263 71 -34 -34 3 -76 135 -154 356 -209 609 -440 796 -730 125 -192 207
-462 207 -677 l0 -89 -47 36 c-237 180 -436 291 -582 325 -93 22 -209 27 -276
11 -22 -5 -41 -8 -42 -6 -10 10 48 61 102 92 90 50 191 66 360 59 141 -7 161
-2 152 37 -11 43 -91 109 -297 246 -514 341 -653 466 -844 751 -68 102 -170
307 -160 323 11 17 305 3 449 -22z m-2035 -2780 c31 -61 53 -167 47 -231 -10
-114 -70 -193 -142 -187 -60 6 -114 135 -96 231 5 31 27 69 72 128 95 126 87
122 119 59z m3730 -1170 c-8 -14 -21 -20 -47 -20 -41 0 -37 9 10 27 45 16 49
16 37 -7z m-3500 -135 c15 -18 8 -64 -22 -143 -32 -85 -68 -111 -103 -75 -13
13 -15 26 -10 62 6 42 43 128 67 159 14 17 53 15 68 -3z m-1554 -551 c225 -46
515 -201 669 -358 75 -76 150 -174 141 -184 -3 -2 -53 27 -113 64 -265 167
-464 241 -547 203 -64 -29 -23 -83 98 -130 109 -42 179 -77 320 -162 138 -83
289 -195 294 -218 2 -12 -19 -22 -85 -42 -121 -36 -184 -42 -269 -24 -91 19
-181 65 -319 162 -176 124 -274 207 -490 416 -132 129 -180 172 -222 201 -18
13 -33 28 -33 34 0 10 81 33 170 47 69 12 316 6 386 -9z m1024 -154 c114 -123
218 -265 268 -364 46 -94 105 -273 127 -388 26 -138 16 -178 -20 -81 -60 161
-110 283 -147 360 -69 142 -148 205 -148 118 0 -49 25 -161 53 -238 14 -37 21
-69 17 -72 -8 -5 -59 48 -83 87 -37 59 -97 211 -117 295 -20 83 -70 353 -70
381 0 23 32 -3 120 -98z m-45 -1130 c85 -22 198 -73 254 -114 19 -14 31 -26
27 -26 -4 0 -68 18 -141 39 -151 45 -249 61 -368 61 -101 0 -127 -7 -127 -31
0 -37 66 -64 315 -129 219 -57 340 -99 327 -112 -5 -5 -108 -9 -228 -10 -211
0 -222 1 -304 27 -47 15 -121 45 -164 67 -98 49 -256 146 -256 157 0 11 195
82 260 95 61 12 326 -4 405 -24z"/>
<path d="M5215 9001 c-82 -21 -204 -54 -270 -73 -66 -20 -163 -43 -215 -53
-157 -29 -169 -33 -190 -68 -28 -46 -25 -69 18 -116 45 -50 195 -142 234 -143
54 -2 84 53 58 102 -6 11 -31 31 -56 46 -52 31 -49 35 36 54 30 6 78 18 105
26 411 116 492 133 551 114 19 -7 34 -15 34 -18 0 -4 -66 -34 -147 -66 -288
-115 -338 -144 -349 -200 -12 -65 16 -103 103 -142 57 -26 202 -54 276 -54 71
0 175 27 234 60 101 58 173 181 173 295 l0 65 68 35 c82 42 97 54 106 82 7 22
-8 62 -28 75 -24 17 -70 6 -158 -37 l-92 -46 -95 48 c-129 66 -186 68 -396 14z
m455 -259 c0 -10 -15 -42 -32 -72 -39 -65 -92 -98 -176 -110 -59 -8 -211 5
-226 20 -10 10 22 27 119 65 39 15 117 46 175 70 118 49 140 53 140 27z"/>
<path d="M3663 2875 c-151 -41 -246 -127 -293 -266 -49 -141 -4 -309 110 -417
96 -92 275 -128 402 -82 63 23 155 77 179 106 11 13 4 24 -42 70 l-55 55 -59
-35 c-32 -20 -74 -39 -92 -42 -94 -18 -182 22 -229 102 -37 62 -40 177 -7 239
67 127 212 155 334 63 l53 -41 33 39 c19 22 43 51 53 66 l20 26 -36 30 c-72
59 -193 103 -282 101 -20 0 -61 -7 -89 -14z"/>
<path d="M902 2493 l3 -388 80 -1 c50 -1 83 3 87 10 4 6 8 117 8 246 0 132 4
230 9 225 4 -6 50 -99 101 -207 l93 -198 63 0 62 0 47 98 c26 53 70 146 98
205 27 59 54 104 58 100 5 -5 10 -114 11 -243 l3 -235 60 -3 c32 -2 69 -1 82
3 l23 5 0 385 0 385 -107 0 -108 -1 -24 -52 c-52 -112 -193 -392 -201 -401 -6
-5 -55 86 -122 222 l-112 232 -108 0 -108 0 2 -387z"/>
<path d="M2220 2873 c0 -3 38 -77 84 -162 46 -86 108 -201 137 -256 l54 -100
5 -125 5 -125 91 -3 c108 -3 101 -14 103 148 l2 111 61 117 c33 64 66 126 73
137 23 38 135 252 135 259 0 3 -42 6 -93 6 l-94 0 -38 -72 c-114 -213 -141
-261 -148 -262 -5 -1 -50 74 -100 167 l-91 167 -93 0 c-51 0 -93 -3 -93 -7z"/>
<path d="M4770 2878 c0 -2 -74 -174 -164 -383 -90 -209 -161 -383 -159 -387 2
-5 46 -8 98 -8 88 0 94 1 100 23 4 12 16 43 27 70 l20 47 173 0 172 0 23 -62
c12 -35 28 -66 34 -70 18 -12 196 -10 196 3 0 5 -20 56 -44 112 -24 56 -61
143 -81 192 -21 50 -55 131 -76 180 -21 50 -56 133 -78 185 l-39 95 -101 3
c-56 1 -101 1 -101 0z m154 -345 c25 -67 46 -127 46 -133 0 -6 -40 -10 -110
-10 l-110 0 11 28 c6 15 23 61 39 102 48 129 60 154 70 144 5 -5 29 -64 54
-131z"/>
<path d="M5722 2493 l3 -388 98 -3 97 -3 0 111 0 110 78 0 77 0 58 -110 58
-110 105 0 c64 0 104 4 104 10 0 6 -22 43 -48 84 -27 40 -60 92 -72 115 l-24
41 47 46 c64 64 91 136 84 226 -7 78 -25 122 -69 167 -69 71 -162 91 -419 91
l-179 0 2 -387z m423 212 c39 -19 55 -51 55 -113 0 -91 -48 -122 -190 -122
l-90 0 0 125 0 125 96 0 c66 0 106 -5 129 -15z"/>
<path d="M6872 2493 l3 -388 308 -3 307 -2 0 75 0 75 -210 0 -210 0 0 80 c0
76 1 80 23 80 12 1 95 0 185 0 l162 -1 0 81 0 80 -185 0 -185 0 0 75 0 75 205
0 205 0 0 80 0 80 -305 0 -305 0 2 -387z"/>
</g>
</svg>
